<svg width="581" height="370" viewBox="0 0 581 370" fill="none" xmlns="http://www.w3.org/2000/svg">
<g clip-path="url(#clip0_14_114)">
<path d="M34.2343 283.848C17.1334 277.206 2.28867 261.316 0.405518 241.991C17.0068 253.491 36.8826 258.35 56.5164 255.709C64.0848 254.661 72.4006 252.655 78.8772 256.965C82.9072 259.647 85.409 264.41 86.5568 269.33C87.7044 274.25 87.6527 279.386 87.5941 284.456L88.1266 285.587C70.2628 289.29 51.3352 290.491 34.2343 283.848Z" fill="#F50057"/>
<path d="M0.776524 241.894C9.49115 255.012 21.8551 264.864 36.1123 270.051C39.163 271.226 42.368 271.88 45.6094 271.989C48.7702 271.987 51.8727 271.08 54.5945 269.365C57.1625 267.819 59.6216 265.921 62.4966 265.069C63.9744 264.656 65.5172 264.582 67.0238 264.85C68.5304 265.119 69.9668 265.724 71.2389 266.627C74.4633 268.789 76.768 272.058 78.9178 275.34C81.3047 278.983 83.7299 282.807 87.4559 285.019C87.9073 285.287 87.4915 286.019 87.0407 285.752C80.5581 281.904 78.1578 273.742 72.64 268.78C70.0652 266.465 66.8214 264.964 63.4187 265.712C60.4432 266.366 57.9058 268.321 55.3184 269.91C52.6861 271.625 49.7005 272.626 46.6224 272.826C43.3862 272.893 40.1629 272.372 37.0905 271.285C30.1369 268.954 23.5697 265.471 17.6295 260.963C10.8232 255.858 4.88496 249.547 0.0717174 242.303C-0.226016 241.855 0.480736 241.449 0.776524 241.894V241.894Z" fill="white"/>
<path d="M31.4295 268.669C30.2896 271.105 28.376 273.029 26.0303 274.098C23.6845 275.166 21.0594 275.31 18.6238 274.502C18.1315 274.337 18.3488 273.513 18.8417 273.678C21.1085 274.434 23.5537 274.3 25.7362 273.301C27.9186 272.301 29.6945 270.501 30.7433 268.226C30.9717 267.732 31.6566 268.178 31.4295 268.669V268.669Z" fill="white"/>
<path d="M53.3892 270.331C51.7834 265.036 48.3672 260.581 43.8217 257.855C43.3712 257.585 43.7869 256.853 44.2369 257.122C48.962 259.968 52.5083 264.612 54.1679 270.127C54.3258 270.652 53.5462 270.854 53.3892 270.331Z" fill="white"/>
<path d="M11.7299 255.264C12.3548 254.42 12.7736 253.423 12.9485 252.363C13.1235 251.303 13.0491 250.213 12.7322 249.192C12.5682 248.668 13.348 248.467 13.511 248.987C13.8562 250.118 13.937 251.321 13.7461 252.493C13.5552 253.664 13.0986 254.768 12.4161 255.707C12.3587 255.802 12.2698 255.869 12.1676 255.896C12.0653 255.923 11.9572 255.907 11.8654 255.852C11.7748 255.793 11.7098 255.698 11.6844 255.588C11.659 255.478 11.6754 255.361 11.7299 255.264V255.264Z" fill="white"/>
<path d="M43.5659 195.043C43.677 195.367 43.7881 195.69 43.9058 196.016C45.4208 200.36 47.2638 204.565 49.4165 208.589C49.5784 208.903 49.7468 209.219 49.9167 209.527C55.2001 219.165 62.1133 227.672 70.3049 234.615C73.567 237.375 77.0209 239.865 80.6368 242.065C85.6307 245.103 91.2718 247.973 94.9265 252.463C95.3127 252.927 95.6717 253.416 96.0013 253.927L89.3773 284.806C89.3293 284.868 89.2877 284.932 89.2396 284.994L89.0279 286.24C88.834 286.141 88.6349 286.033 88.441 285.933C88.3283 285.876 88.2171 285.812 88.1043 285.755C88.0297 285.714 87.9551 285.674 87.8855 285.642C87.8606 285.629 87.8358 285.615 87.8174 285.603C87.7479 285.571 87.6864 285.534 87.6235 285.504C86.509 284.905 85.3964 284.297 84.2859 283.679C84.2793 283.677 84.2793 283.677 84.2741 283.669C75.7699 279.049 67.8089 273.369 60.5581 266.747C60.3442 266.546 60.1237 266.344 59.9128 266.129C56.7233 263.104 53.7707 259.805 51.0846 256.266C49.6195 254.323 48.2476 252.302 46.9739 250.211C43.6927 244.802 41.2288 238.875 39.6726 232.647C36.572 220.233 37.2244 206.898 43.1086 195.88C43.2593 195.598 43.4086 195.323 43.5659 195.043Z" fill="#F50057"/>
<path d="M43.918 195.202C43.4797 211.278 47.7964 227.093 56.255 240.4C58.0283 243.299 60.2186 245.882 62.7451 248.053C65.2702 250.083 68.2584 251.354 71.3991 251.733C74.3209 252.15 77.3547 252.216 80.1307 253.384C81.5433 254.004 82.8172 254.936 83.8687 256.119C84.9202 257.302 85.7257 258.709 86.2323 260.248C87.588 264.046 87.5844 268.139 87.4507 272.141C87.3023 276.584 87.0822 281.197 88.8101 285.358C89.0194 285.862 88.2745 286.179 88.0654 285.676C85.0592 278.436 87.745 270.376 86.1371 262.867C85.3869 259.363 83.6431 256.08 80.5045 254.489C77.7599 253.099 74.6314 253.029 71.6697 252.634C68.6007 252.311 65.6524 251.192 63.0823 249.372C60.4604 247.345 58.1806 244.857 56.3406 242.014C52.1025 235.683 48.8229 228.68 46.6221 221.262C44.0664 212.81 42.8835 203.953 43.1247 195.076C43.1398 194.526 43.933 194.656 43.918 195.202L43.918 195.202Z" fill="white"/>
<path d="M53.2952 236.286C51.0116 237.498 48.3987 237.804 45.9233 237.15C43.4479 236.495 41.2711 234.922 39.7816 232.711C39.4816 232.263 40.1201 231.744 40.4204 232.193C41.8038 234.254 43.8317 235.719 46.138 236.324C48.4443 236.929 50.877 236.633 52.9972 235.491C53.4583 235.244 53.7536 236.04 53.2952 236.286Z" fill="white"/>
<path d="M69.8916 251.73C71.5956 246.47 71.38 240.716 69.2878 235.618C69.0801 235.113 69.825 234.795 70.0324 235.3C72.2004 240.61 72.4133 246.597 70.6288 252.068C70.4584 252.589 69.7221 252.249 69.8916 251.73Z" fill="white"/>
<path d="M45.1249 212.919C46.1 212.646 46.9965 212.12 47.7338 211.386C48.4711 210.652 49.0262 209.734 49.3492 208.715C49.5134 208.191 50.2495 208.532 50.0865 209.052C49.7247 210.177 49.1105 211.189 48.2975 212.002C47.4846 212.815 46.4976 213.403 45.4228 213.714C45.3238 213.752 45.2148 213.749 45.118 213.705C45.0212 213.661 44.9438 213.579 44.9015 213.476C44.8626 213.37 44.8642 213.252 44.906 213.148C44.9478 213.044 45.0264 212.962 45.1248 212.919H45.1249Z" fill="white"/>
<path d="M551.831 283.211C568.037 274.374 580.94 256.657 580.585 237.23C565.433 250.822 546.267 258.253 526.478 258.209C518.847 258.163 510.363 257.262 504.432 262.391C500.741 265.581 498.806 270.636 498.234 275.669C497.661 280.703 498.304 285.793 498.946 290.817L498.547 292.009C516.702 293.339 535.624 292.047 551.831 283.211Z" fill="#F50057"/>
<path d="M552.867 267.778C554.279 270.046 556.399 271.705 558.85 272.457C561.301 273.21 563.923 273.007 566.247 271.887C566.717 271.658 566.406 270.868 565.936 271.097C563.773 272.145 561.331 272.333 559.05 271.628C556.769 270.922 554.8 269.369 553.497 267.249C553.213 266.788 552.585 267.321 552.867 267.778Z" fill="white"/>
<path d="M531.265 272.31C532.249 266.844 535.127 261.974 539.324 258.672C539.74 258.345 539.243 257.673 538.827 258C534.466 261.444 531.481 266.518 530.469 272.209C530.373 272.752 531.17 272.85 531.265 272.31H531.265Z" fill="white"/>
<path d="M570.874 251.89C570.157 251.134 569.626 250.199 569.331 249.17C569.035 248.141 568.983 247.05 569.18 245.995C569.283 245.454 568.486 245.356 568.384 245.894C568.171 247.061 568.23 248.266 568.554 249.404C568.878 250.541 569.458 251.577 570.244 252.419C570.312 252.506 570.408 252.561 570.512 252.574C570.617 252.587 570.722 252.558 570.807 252.491C570.89 252.42 570.944 252.317 570.956 252.205C570.969 252.092 570.939 251.979 570.874 251.89H570.874Z" fill="white"/>
<path d="M532.347 196.303C532.274 196.639 532.201 196.975 532.122 197.314C531.118 201.823 529.773 206.238 528.1 210.515C527.976 210.848 527.845 211.183 527.712 211.512C523.578 221.77 517.696 231.119 510.366 239.085C507.446 242.251 504.305 245.176 500.97 247.834C496.364 251.505 491.096 255.093 487.986 260.029C487.656 260.54 487.356 261.072 487.088 261.623L497.216 291.398C497.271 291.453 497.32 291.512 497.375 291.567L497.728 292.776C497.909 292.652 498.094 292.519 498.275 292.394C498.38 292.323 498.483 292.244 498.589 292.173C498.658 292.123 498.728 292.073 498.793 292.032C498.816 292.016 498.839 291.999 498.856 291.985C498.921 291.944 498.978 291.899 499.037 291.86C500.074 291.12 501.108 290.37 502.139 289.612C502.146 289.609 502.146 289.609 502.15 289.6C510.058 283.899 517.304 277.217 523.738 269.693C523.927 269.466 524.123 269.237 524.307 268.996C527.124 265.575 529.675 261.914 531.933 258.049C533.163 255.928 534.292 253.743 535.315 251.501C537.949 245.701 539.712 239.496 540.539 233.111C542.187 220.384 540.005 207.236 532.897 197.074C532.715 196.814 532.535 196.561 532.347 196.303Z" fill="#F50057"/>
<path d="M532.016 196.508C534.301 212.404 531.838 228.665 524.975 242.982C523.549 246.092 521.673 248.942 519.416 251.428C517.143 253.774 514.324 255.428 511.251 256.217C508.399 257.014 505.396 257.477 502.775 259C501.445 259.801 500.288 260.894 499.381 262.206C498.473 263.518 497.836 265.02 497.51 266.613C496.602 270.561 497.077 274.622 497.67 278.576C498.329 282.966 499.078 287.515 497.843 291.871C497.693 292.399 498.469 292.616 498.618 292.089C500.768 284.51 497.175 276.864 497.906 269.2C498.247 265.625 499.6 262.137 502.532 260.147C505.096 258.407 508.192 257.927 511.086 257.146C514.095 256.423 516.892 254.925 519.233 252.782C521.601 250.426 523.577 247.658 525.076 244.594C528.553 237.755 531.002 230.375 532.332 222.724C533.895 214.001 534.05 205.057 532.789 196.278C532.71 195.735 531.938 195.968 532.016 196.508Z" fill="white"/>
<path d="M527.439 238.511C529.845 239.414 532.473 239.375 534.855 238.4C537.236 237.425 539.215 235.578 540.439 233.189C540.685 232.705 539.992 232.274 539.745 232.759C538.609 234.986 536.766 236.706 534.547 237.609C532.327 238.512 529.879 238.538 527.643 237.683C527.157 237.497 526.956 238.327 527.439 238.511Z" fill="white"/>
<path d="M512.746 256.016C510.45 251.019 510.001 245.281 511.491 239.946C511.639 239.418 510.863 239.201 510.715 239.728C509.175 245.283 509.653 251.253 512.054 256.447C512.283 256.942 512.974 256.508 512.746 256.016Z" fill="white"/>
<path d="M532.857 214.248C531.858 214.106 530.908 213.701 530.092 213.069C529.276 212.438 528.619 211.6 528.181 210.63C527.958 210.133 527.267 210.567 527.488 211.062C527.977 212.13 528.703 213.055 529.603 213.755C530.504 214.455 531.551 214.908 532.653 215.076C532.756 215.102 532.864 215.084 532.955 215.027C533.046 214.971 533.113 214.879 533.143 214.771C533.17 214.662 533.155 214.545 533.101 214.447C533.048 214.349 532.96 214.278 532.857 214.248V214.248Z" fill="white"/>
<path d="M506.092 12.7182H391.911V20.5611C391.909 20.9627 392.039 21.3524 392.277 21.6634C392.046 27.7936 391.911 35.6196 391.911 44.1238V253.806C391.911 273.46 392.65 289.451 393.555 289.451H504.449C505.354 289.451 506.092 273.46 506.092 253.806V44.1238C506.092 35.6196 505.957 27.7936 505.727 21.6634C505.965 21.3524 506.094 20.9627 506.092 20.5611L506.092 12.7182Z" fill="white"/>
<path d="M504.449 290.299H393.555C392.691 290.299 392.12 290.299 391.6 279.04C391.289 272.284 391.117 263.322 391.117 253.806V44.124C391.117 35.9047 391.247 27.916 391.483 21.6293C391.631 17.8549 391.8 14.8314 391.986 12.6417C392.351 8.35506 392.698 7.63097 393.555 7.63097H504.449C505.306 7.63097 505.653 8.35506 506.018 12.6417C506.204 14.8396 506.373 17.8631 506.52 21.6277L506.521 21.6293C506.756 27.9094 506.886 35.8981 506.886 44.124V253.806C506.886 263.323 506.715 272.285 506.403 279.04C505.884 290.299 505.313 290.299 504.449 290.299ZM394.006 288.603H503.998C504.572 286.286 505.298 273.705 505.298 253.806V44.124C505.298 35.9204 505.169 27.9566 504.934 21.6989H504.934C504.787 17.9612 504.62 14.9655 504.436 12.7949C504.365 11.6289 504.216 10.4699 503.99 9.32674H394.014C393.788 10.4699 393.639 11.6289 393.568 12.7949C393.384 14.9572 393.217 17.953 393.07 21.6989C392.835 27.962 392.705 35.9266 392.705 44.124V253.806C392.705 273.705 393.431 286.286 394.006 288.603Z" fill="#E4E4E4"/>
<path d="M504.449 8.47874H393.555C393.119 8.47964 392.702 8.66483 392.394 8.99378C392.085 9.32273 391.912 9.76864 391.911 10.2339V20.5611C391.909 20.9627 392.039 21.3524 392.277 21.6634C392.431 21.8667 392.626 22.0307 392.847 22.1437C393.068 22.2566 393.31 22.3155 393.555 22.3162H504.449C504.694 22.3155 504.936 22.2565 505.157 22.1436C505.378 22.0307 505.573 21.8666 505.727 21.6634C505.965 21.3524 506.094 20.9627 506.092 20.5611V10.2339C506.091 9.76867 505.918 9.32278 505.61 8.99382C505.302 8.66486 504.884 8.47965 504.449 8.47874Z" fill="#680747"/>
<path d="M401.456 17.3859C402.745 17.3859 403.79 16.2699 403.79 14.8934C403.79 13.5169 402.745 12.4009 401.456 12.4009C400.167 12.4009 399.122 13.5169 399.122 14.8934C399.122 16.2699 400.167 17.3859 401.456 17.3859Z" fill="white"/>
<path d="M410.316 17.3859C411.605 17.3859 412.65 16.2699 412.65 14.8934C412.65 13.5169 411.605 12.4009 410.316 12.4009C409.027 12.4009 407.982 13.5169 407.982 14.8934C407.982 16.2699 409.027 17.3859 410.316 17.3859Z" fill="white"/>
<path d="M419.177 17.3859C420.466 17.3859 421.511 16.2699 421.511 14.8934C421.511 13.5169 420.466 12.4009 419.177 12.4009C417.888 12.4009 416.842 13.5169 416.842 14.8934C416.842 16.2699 417.888 17.3859 419.177 17.3859Z" fill="white"/>
<path d="M495.769 11.5651H485.565C485.365 11.5665 485.174 11.6518 485.033 11.8026C484.892 11.9534 484.812 12.1574 484.811 12.3706C484.808 12.492 484.835 12.612 484.89 12.7182C484.951 12.8548 485.046 12.9702 485.166 13.0513C485.285 13.1323 485.424 13.1756 485.565 13.1761H495.769C495.912 13.1768 496.052 13.1342 496.173 13.0531C496.294 12.972 496.391 12.8559 496.452 12.7182C496.501 12.6098 496.525 12.4908 496.524 12.3706C496.524 12.2648 496.504 12.16 496.466 12.0622C496.428 11.9645 496.373 11.8757 496.303 11.8008C496.233 11.726 496.149 11.6667 496.058 11.6263C495.966 11.5858 495.868 11.565 495.769 11.5651Z" fill="white"/>
<path d="M495.769 14.5921H485.565C485.365 14.5921 485.173 14.6769 485.032 14.828C484.89 14.979 484.811 15.1839 484.811 15.3975C484.811 15.6112 484.89 15.8161 485.032 15.9671C485.173 16.1182 485.365 16.203 485.565 16.203H495.769C495.969 16.203 496.161 16.1182 496.303 15.9671C496.444 15.8161 496.524 15.6112 496.524 15.3975C496.524 15.1839 496.444 14.979 496.303 14.828C496.161 14.6769 495.969 14.5921 495.769 14.5921Z" fill="white"/>
<path d="M495.769 17.619H485.565C485.365 17.619 485.173 17.7039 485.032 17.8549C484.89 18.006 484.811 18.2109 484.811 18.4245C484.811 18.6381 484.89 18.843 485.032 18.9941C485.173 19.1451 485.365 19.23 485.565 19.23H495.769C495.969 19.23 496.161 19.1451 496.303 18.9941C496.444 18.843 496.524 18.6381 496.524 18.4245C496.524 18.2109 496.444 18.006 496.303 17.8549C496.161 17.7039 495.969 17.619 495.769 17.619Z" fill="white"/>
<path d="M460.035 44.9548H439.04C437.987 44.9553 436.977 45.4021 436.233 46.197C435.488 46.992 435.07 48.07 435.07 49.1942V68.6108C435.071 69.7346 435.49 70.8118 436.234 71.6065C436.979 72.4011 437.987 72.8484 439.04 72.8502H460.035C461.088 72.847 462.096 72.3992 462.84 71.6049C463.583 70.8106 464.003 69.7342 464.006 68.6108V49.1942C464.004 48.0704 463.585 46.9932 462.841 46.1986C462.097 45.4039 461.088 44.9567 460.035 44.9548Z" fill="#F50057"/>
<path d="M486.121 85.5345H412.946C412.468 85.5345 412.01 85.7373 411.672 86.0983C411.334 86.4592 411.144 86.9488 411.144 87.4592C411.144 87.9697 411.334 88.4593 411.672 88.8202C412.01 89.1812 412.468 89.384 412.946 89.384H486.121C486.599 89.384 487.058 89.1812 487.396 88.8202C487.734 88.4593 487.924 87.9697 487.924 87.4592C487.924 86.9488 487.734 86.4592 487.396 86.0983C487.058 85.7373 486.599 85.5345 486.121 85.5345Z" fill="#E4E4E4"/>
<path d="M440.739 94.5561H412.946C412.468 94.5561 412.01 94.7589 411.672 95.1198C411.334 95.4808 411.144 95.9703 411.144 96.4808C411.144 96.9913 411.334 97.4808 411.672 97.8418C412.01 98.2027 412.468 98.4055 412.946 98.4055H440.739C441.217 98.4055 441.676 98.2027 442.014 97.8418C442.352 97.4808 442.542 96.9913 442.542 96.4808C442.542 95.9703 442.352 95.4808 442.014 95.1198C441.676 94.7589 441.217 94.5561 440.739 94.5561Z" fill="#E4E4E4"/>
<path d="M460.035 128.895H439.04C437.987 128.896 436.977 129.343 436.233 130.138C435.488 130.933 435.07 132.011 435.07 133.135V152.551C435.071 153.675 435.49 154.752 436.234 155.547C436.979 156.342 437.987 156.789 439.04 156.791H460.035C461.088 156.788 462.096 156.34 462.84 155.546C463.583 154.751 464.003 153.675 464.006 152.551V133.135C464.004 132.011 463.585 130.934 462.841 130.139C462.097 129.345 461.088 128.897 460.035 128.895Z" fill="#F50057"/>
<path d="M486.121 169.475H412.946C412.468 169.475 412.01 169.678 411.672 170.039C411.334 170.4 411.144 170.889 411.144 171.4C411.144 171.91 411.334 172.4 411.672 172.761C412.01 173.122 412.468 173.325 412.946 173.325H486.121C486.599 173.325 487.058 173.122 487.396 172.761C487.734 172.4 487.924 171.91 487.924 171.4C487.924 170.889 487.734 170.4 487.396 170.039C487.058 169.678 486.599 169.475 486.121 169.475Z" fill="#E4E4E4"/>
<path d="M440.739 178.497H412.946C412.468 178.497 412.01 178.7 411.672 179.06C411.334 179.421 411.144 179.911 411.144 180.421C411.144 180.932 411.334 181.421 411.672 181.782C412.01 182.143 412.468 182.346 412.946 182.346H440.739C441.217 182.346 441.676 182.143 442.014 181.782C442.352 181.421 442.542 180.932 442.542 180.421C442.542 179.911 442.352 179.421 442.014 179.06C441.676 178.7 441.217 178.497 440.739 178.497Z" fill="#E4E4E4"/>
<path d="M460.035 212.836H439.04C437.987 212.837 436.977 213.283 436.233 214.078C435.488 214.873 435.07 215.951 435.07 217.075V236.492C435.071 237.616 435.49 238.693 436.234 239.488C436.979 240.282 437.987 240.73 439.04 240.731H460.035C461.088 240.728 462.096 240.28 462.84 239.486C463.583 238.692 464.003 237.615 464.006 236.492V217.075C464.004 215.952 463.585 214.874 462.841 214.08C462.097 213.285 461.088 212.838 460.035 212.836Z" fill="#F50057"/>
<path d="M486.121 253.416H412.946C412.468 253.416 412.01 253.619 411.672 253.98C411.334 254.34 411.144 254.83 411.144 255.341C411.144 255.851 411.334 256.34 411.672 256.701C412.01 257.062 412.468 257.265 412.946 257.265H486.121C486.599 257.265 487.058 257.062 487.396 256.701C487.734 256.34 487.924 255.851 487.924 255.341C487.924 254.83 487.734 254.34 487.396 253.98C487.058 253.619 486.599 253.416 486.121 253.416Z" fill="#E4E4E4"/>
<path d="M440.739 262.437H412.946C412.468 262.437 412.01 262.64 411.672 263.001C411.334 263.362 411.144 263.852 411.144 264.362C411.144 264.873 411.334 265.362 411.672 265.723C412.01 266.084 412.468 266.287 412.946 266.287H440.739C441.217 266.287 441.676 266.084 442.014 265.723C442.352 265.362 442.542 264.873 442.542 264.362C442.542 263.852 442.352 263.362 442.014 263.001C441.676 262.64 441.217 262.437 440.739 262.437Z" fill="#E4E4E4"/>
<path d="M360.775 2.60291C360.774 2.13771 360.601 1.69182 360.293 1.36287C359.985 1.03391 359.567 0.848693 359.131 0.847778H65.5988C65.1631 0.848677 64.7454 1.03387 64.4373 1.36282C64.1292 1.69176 63.9557 2.13767 63.9548 2.60291V12.9301C63.9534 13.3601 64.1037 13.7748 64.3759 14.0918C64.1138 21.1038 63.9548 30.3457 63.9548 40.4695V273.562C63.9548 295.42 64.6934 313.192 65.5988 313.192H359.131C360.037 313.192 360.775 295.42 360.775 273.562V40.4695C360.775 30.3457 360.617 21.1038 360.354 14.0918C360.626 13.7748 360.777 13.36 360.775 12.9301V2.60291Z" fill="white"/>
<path d="M359.132 314.04H65.5988C64.7015 314.04 64.1598 314.04 63.6439 301.611C63.3323 294.103 63.1607 284.142 63.1607 273.561V40.4695C63.1607 30.7126 63.3105 21.3329 63.5825 14.058C64.1045 -3.44559e-05 64.6989 -4.57764e-05 65.5988 -4.57764e-05H359.132C360.031 -4.57764e-05 360.626 0.00244958 361.148 14.058C361.419 21.3263 361.569 30.706 361.569 40.4695V273.561C361.569 284.142 361.398 294.104 361.086 301.611C360.57 314.04 360.029 314.04 359.132 314.04ZM66.0623 312.344H358.668C359.318 309.686 359.981 294.758 359.981 273.561V40.4695C359.981 30.7279 359.832 21.3718 359.561 14.1259V14.1255C359.23 5.21976 358.844 2.50966 358.659 1.69572H66.071C65.8863 2.50969 65.5001 5.21976 65.1693 14.1255C64.8982 21.3788 64.7489 30.7346 64.7489 40.4695V273.561C64.7489 294.758 65.4124 309.685 66.0623 312.344Z" fill="#E4E4E4"/>
<path d="M359.131 0.847778H65.5988C65.1631 0.848677 64.7454 1.03387 64.4373 1.36282C64.1292 1.69176 63.9557 2.13767 63.9548 2.60291V12.9301C63.9534 13.3601 64.1037 13.7748 64.3759 14.0918C64.5285 14.2778 64.7165 14.427 64.9273 14.5294C65.1382 14.6317 65.3671 14.6849 65.5988 14.6853H359.131C359.363 14.6849 359.592 14.6317 359.803 14.5294C360.014 14.427 360.202 14.2778 360.354 14.0918C360.626 13.7748 360.777 13.36 360.775 12.9301V2.60291C360.774 2.13773 360.601 1.69185 360.293 1.36289C359.985 1.03394 359.567 0.848711 359.131 0.847778Z" fill="#680747"/>
<path d="M73.4995 9.75489C74.7887 9.75489 75.8338 8.63898 75.8338 7.26243C75.8338 5.88589 74.7887 4.76997 73.4995 4.76997C72.2103 4.76997 71.1652 5.88589 71.1652 7.26243C71.1652 8.63898 72.2103 9.75489 73.4995 9.75489Z" fill="white"/>
<path d="M82.3598 9.75489C83.649 9.75489 84.6941 8.63898 84.6941 7.26243C84.6941 5.88589 83.649 4.76997 82.3598 4.76997C81.0706 4.76997 80.0255 5.88589 80.0255 7.26243C80.0255 8.63898 81.0706 9.75489 82.3598 9.75489Z" fill="white"/>
<path d="M91.2205 9.75489C92.5097 9.75489 93.5548 8.63898 93.5548 7.26243C93.5548 5.88589 92.5097 4.76997 91.2205 4.76997C89.9313 4.76997 88.8862 5.88589 88.8862 7.26243C88.8862 8.63898 89.9313 9.75489 91.2205 9.75489Z" fill="white"/>
<path d="M350.452 3.93413H340.248C340.048 3.93413 339.856 4.01899 339.715 4.17005C339.573 4.32111 339.494 4.52599 339.494 4.73962C339.494 4.95325 339.573 5.15813 339.715 5.30919C339.856 5.46024 340.048 5.54512 340.248 5.54512H350.452C350.652 5.54512 350.844 5.46024 350.985 5.30919C351.127 5.15813 351.206 4.95325 351.206 4.73962C351.206 4.52599 351.127 4.32111 350.985 4.17005C350.844 4.01899 350.652 3.93413 350.452 3.93413Z" fill="white"/>
<path d="M350.452 6.96109H340.248C340.048 6.96109 339.856 7.04595 339.715 7.19701C339.573 7.34807 339.494 7.55295 339.494 7.76658C339.494 7.98021 339.573 8.18509 339.715 8.33615C339.856 8.48721 340.048 8.57207 340.248 8.57207H350.452C350.652 8.57207 350.844 8.48721 350.985 8.33615C351.127 8.18509 351.206 7.98021 351.206 7.76658C351.206 7.55295 351.127 7.34807 350.985 7.19701C350.844 7.04595 350.652 6.96109 350.452 6.96109Z" fill="white"/>
<path d="M350.452 9.98804H340.248C340.048 9.98804 339.856 10.0729 339.715 10.224C339.573 10.375 339.494 10.5799 339.494 10.7935C339.494 11.0072 339.573 11.212 339.715 11.3631C339.856 11.5142 340.048 11.599 340.248 11.599H350.452C350.652 11.599 350.844 11.5142 350.985 11.3631C351.127 11.212 351.206 11.0072 351.206 10.7935C351.206 10.5799 351.127 10.375 350.985 10.224C350.844 10.0729 350.652 9.98804 350.452 9.98804Z" fill="white"/>
<path d="M160.476 52.5858H126.124C124.402 52.588 122.751 53.3195 121.533 54.6197C120.315 55.9199 119.63 57.6827 119.628 59.5215V91.2917C119.63 93.1305 120.315 94.8933 121.533 96.1935C122.751 97.4937 124.402 98.2252 126.124 98.2274H160.476C162.198 98.2252 163.849 97.4937 165.066 96.1935C166.284 94.8933 166.969 93.1305 166.971 91.2917V59.5215C166.969 57.6827 166.284 55.9199 165.066 54.6197C163.849 53.3195 162.198 52.588 160.476 52.5858Z" fill="#F50057"/>
<path d="M302.164 64.8716H182.432C181.65 64.8716 180.899 65.2035 180.346 65.7942C179.793 66.385 179.482 67.1861 179.482 68.0215C179.482 68.8569 179.793 69.6581 180.346 70.2488C180.899 70.8396 181.65 71.1714 182.432 71.1714H302.164C302.946 71.1714 303.697 70.8396 304.25 70.2488C304.803 69.6581 305.114 68.8569 305.114 68.0215C305.114 67.1861 304.803 66.385 304.25 65.7942C303.697 65.2035 302.946 64.8716 302.164 64.8716Z" fill="#E4E4E4"/>
<path d="M227.909 79.6333H182.432C181.65 79.6333 180.899 79.9651 180.346 80.5558C179.793 81.1466 179.482 81.9477 179.482 82.7831C179.482 83.6185 179.793 84.4197 180.346 85.0104C180.899 85.6012 181.65 85.933 182.432 85.933H227.909C228.692 85.933 229.442 85.6012 229.995 85.0104C230.548 84.4197 230.859 83.6185 230.859 82.7831C230.859 81.9477 230.548 81.1466 229.995 80.5558C229.442 79.9651 228.692 79.6333 227.909 79.6333Z" fill="#E4E4E4"/>
<path d="M160.476 137.374H126.124C124.402 137.377 122.751 138.108 121.533 139.408C120.315 140.708 119.63 142.471 119.628 144.31V176.08C119.63 177.919 120.315 179.682 121.533 180.982C122.751 182.282 124.402 183.014 126.124 183.016H160.476C162.198 183.014 163.849 182.282 165.066 180.982C166.284 179.682 166.969 177.919 166.971 176.08V144.31C166.969 142.471 166.284 140.708 165.066 139.408C163.849 138.108 162.198 137.377 160.476 137.374Z" fill="#F50057"/>
<path d="M302.164 149.66H182.432C181.65 149.66 180.899 149.992 180.346 150.583C179.793 151.173 179.482 151.975 179.482 152.81C179.482 153.645 179.793 154.447 180.346 155.037C180.899 155.628 181.65 155.96 182.432 155.96H302.164C302.946 155.96 303.697 155.628 304.25 155.037C304.803 154.447 305.114 153.645 305.114 152.81C305.114 151.975 304.803 151.173 304.25 150.583C303.697 149.992 302.946 149.66 302.164 149.66Z" fill="#E4E4E4"/>
<path d="M227.909 164.422H182.432C181.65 164.422 180.899 164.754 180.346 165.344C179.793 165.935 179.482 166.736 179.482 167.572C179.482 168.407 179.793 169.208 180.346 169.799C180.899 170.39 181.65 170.722 182.432 170.722H227.909C228.692 170.722 229.442 170.39 229.995 169.799C230.548 169.208 230.859 168.407 230.859 167.572C230.859 166.736 230.548 165.935 229.995 165.344C229.442 164.754 228.692 164.422 227.909 164.422Z" fill="#E4E4E4"/>
<path d="M160.476 222.163H126.124C124.402 222.165 122.751 222.897 121.533 224.197C120.315 225.497 119.63 227.26 119.628 229.099V260.869C119.63 262.707 120.315 264.47 121.533 265.771C122.751 267.071 124.402 267.802 126.124 267.804H160.476C162.198 267.802 163.849 267.071 165.066 265.771C166.284 264.47 166.969 262.707 166.971 260.869V229.099C166.969 227.26 166.284 225.497 165.066 224.197C163.849 222.897 162.198 222.165 160.476 222.163Z" fill="#F50057"/>
<path d="M302.164 234.449H182.432C181.65 234.449 180.899 234.781 180.346 235.371C179.793 235.962 179.482 236.763 179.482 237.599C179.482 238.434 179.793 239.235 180.346 239.826C180.899 240.417 181.65 240.748 182.432 240.748H302.164C302.946 240.748 303.697 240.417 304.25 239.826C304.803 239.235 305.114 238.434 305.114 237.599C305.114 236.763 304.803 235.962 304.25 235.371C303.697 234.781 302.946 234.449 302.164 234.449Z" fill="#E4E4E4"/>
<path d="M227.909 249.21H182.432C181.65 249.21 180.899 249.542 180.346 250.133C179.793 250.724 179.482 251.525 179.482 252.36C179.482 253.196 179.793 253.997 180.346 254.588C180.899 255.178 181.65 255.51 182.432 255.51H227.909C228.692 255.51 229.442 255.178 229.995 254.588C230.548 253.997 230.859 253.196 230.859 252.36C230.859 251.525 230.548 250.724 229.995 250.133C229.442 249.542 228.692 249.21 227.909 249.21Z" fill="#E4E4E4"/>
<path d="M411.543 369.152H214.89C213.983 369.152 213.245 354.272 213.245 335.98V140.853C213.245 122.561 213.983 107.681 214.89 107.681H411.543C412.45 107.681 413.187 122.561 413.187 140.853V335.98C413.187 354.272 412.45 369.152 411.543 369.152Z" fill="white"/>
<path d="M411.543 370H214.889C214.058 370 213.456 370 212.934 359.471C212.623 353.183 212.451 344.841 212.451 335.98V140.853C212.451 131.992 212.623 123.649 212.934 117.363C213.456 106.833 214.058 106.833 214.889 106.833H411.543C412.375 106.833 412.976 106.833 413.498 117.363C413.81 123.649 413.982 131.992 413.982 140.853V335.98C413.982 344.841 413.81 353.183 413.498 359.471C412.976 370 412.375 370 411.543 370ZM215.329 368.304H411.104C411.674 366.108 412.393 354.404 412.393 335.98V140.853C412.393 122.429 411.674 110.725 411.104 108.528H215.329C214.759 110.725 214.039 122.429 214.039 140.853V335.98C214.039 354.404 214.759 366.108 215.329 368.304Z" fill="#E4E4E4"/>
<path d="M411.543 121.519H214.89C214.454 121.518 214.036 121.333 213.727 121.004C213.419 120.675 213.246 120.228 213.245 119.763V109.436C213.246 108.971 213.419 108.525 213.727 108.195C214.036 107.866 214.454 107.681 214.89 107.681H411.543C411.979 107.681 412.397 107.866 412.705 108.195C413.014 108.525 413.187 108.971 413.187 109.436V119.763C413.187 120.228 413.014 120.675 412.705 121.004C412.397 121.333 411.979 121.518 411.543 121.519Z" fill="#680747"/>
<path d="M222.787 116.588C224.076 116.588 225.121 115.473 225.121 114.096C225.121 112.719 224.076 111.604 222.787 111.604C221.498 111.604 220.453 112.719 220.453 114.096C220.453 115.473 221.498 116.588 222.787 116.588Z" fill="white"/>
<path d="M231.647 116.588C232.937 116.588 233.982 115.473 233.982 114.096C233.982 112.719 232.937 111.604 231.647 111.604C230.358 111.604 229.313 112.719 229.313 114.096C229.313 115.473 230.358 116.588 231.647 116.588Z" fill="white"/>
<path d="M240.508 116.588C241.797 116.588 242.842 115.473 242.842 114.096C242.842 112.719 241.797 111.604 240.508 111.604C239.219 111.604 238.174 112.719 238.174 114.096C238.174 115.473 239.219 116.588 240.508 116.588Z" fill="white"/>
<path d="M402.862 112.38H392.659C392.459 112.38 392.267 112.295 392.125 112.144C391.983 111.993 391.903 111.787 391.903 111.573C391.903 111.359 391.983 111.154 392.125 111.003C392.267 110.851 392.459 110.766 392.659 110.766H402.862C403.062 110.767 403.254 110.852 403.395 111.004C403.536 111.155 403.615 111.36 403.615 111.573C403.615 111.787 403.536 111.992 403.395 112.143C403.254 112.294 403.062 112.38 402.862 112.38Z" fill="white"/>
<path d="M402.862 115.407H392.659C392.459 115.407 392.267 115.322 392.125 115.17C391.983 115.019 391.903 114.814 391.903 114.6C391.903 114.386 391.983 114.18 392.125 114.029C392.267 113.878 392.459 113.793 392.659 113.793H402.862C403.063 113.793 403.255 113.878 403.397 114.029C403.538 114.18 403.618 114.386 403.618 114.6C403.618 114.814 403.538 115.019 403.397 115.17C403.255 115.322 403.063 115.407 402.862 115.407Z" fill="white"/>
<path d="M402.862 118.433H392.659C392.459 118.433 392.267 118.348 392.125 118.196C391.983 118.045 391.903 117.84 391.903 117.626C391.903 117.412 391.983 117.207 392.125 117.055C392.267 116.904 392.459 116.819 392.659 116.819H402.862C403.062 116.82 403.254 116.905 403.395 117.056C403.536 117.207 403.615 117.412 403.615 117.626C403.615 117.839 403.536 118.044 403.395 118.195C403.254 118.347 403.062 118.432 402.862 118.433Z" fill="white"/>
<path d="M275.319 185.616H250.231C248.974 185.615 247.768 185.08 246.878 184.131C245.989 183.181 245.489 181.893 245.487 180.55V157.349C245.489 156.006 245.989 154.719 246.878 153.769C247.768 152.819 248.974 152.285 250.231 152.284H275.319C276.577 152.285 277.783 152.819 278.672 153.769C279.562 154.719 280.062 156.006 280.063 157.349V180.55C280.062 181.893 279.562 183.181 278.672 184.131C277.783 185.08 276.577 185.615 275.319 185.616Z" fill="#F50057"/>
<path d="M378.792 165.86H291.355C290.784 165.86 290.236 165.617 289.832 165.186C289.428 164.755 289.201 164.17 289.201 163.56C289.201 162.95 289.428 162.365 289.832 161.934C290.236 161.502 290.784 161.26 291.355 161.26H378.792C379.363 161.26 379.911 161.502 380.315 161.934C380.719 162.365 380.946 162.95 380.946 163.56C380.946 164.17 380.719 164.755 380.315 165.186C379.911 165.617 379.363 165.86 378.792 165.86Z" fill="#E4E4E4"/>
<path d="M324.565 176.64H291.355C290.784 176.64 290.236 176.397 289.832 175.966C289.428 175.535 289.201 174.95 289.201 174.34C289.201 173.73 289.428 173.145 289.832 172.714C290.236 172.282 290.784 172.04 291.355 172.04H324.565C324.848 172.039 325.128 172.099 325.39 172.214C325.652 172.329 325.89 172.498 326.09 172.712C326.291 172.926 326.45 173.179 326.558 173.459C326.667 173.738 326.723 174.037 326.723 174.34C326.723 174.642 326.667 174.942 326.558 175.221C326.45 175.5 326.291 175.754 326.09 175.968C325.89 176.181 325.652 176.351 325.39 176.466C325.128 176.581 324.848 176.64 324.565 176.64Z" fill="#E4E4E4"/>
<path d="M275.319 254.295H250.231C248.974 254.293 247.768 253.759 246.878 252.809C245.989 251.86 245.489 250.572 245.487 249.229V226.028C245.489 224.685 245.989 223.398 246.878 222.448C247.768 221.498 248.974 220.964 250.231 220.962H275.319C276.577 220.964 277.783 221.498 278.672 222.448C279.562 223.398 280.062 224.685 280.063 226.028V249.229C280.062 250.572 279.562 251.86 278.672 252.809C277.783 253.759 276.577 254.293 275.319 254.295Z" fill="#F50057"/>
<path d="M378.792 234.538H291.355C290.784 234.538 290.236 234.296 289.832 233.865C289.428 233.434 289.201 232.849 289.201 232.239C289.201 231.629 289.428 231.044 289.832 230.612C290.236 230.181 290.784 229.939 291.355 229.939H378.792C379.363 229.939 379.911 230.181 380.315 230.612C380.719 231.044 380.946 231.629 380.946 232.239C380.946 232.849 380.719 233.434 380.315 233.865C379.911 234.296 379.363 234.538 378.792 234.538Z" fill="#E4E4E4"/>
<path d="M324.565 245.318H291.355C290.784 245.318 290.236 245.076 289.832 244.645C289.428 244.214 289.201 243.629 289.201 243.019C289.201 242.409 289.428 241.824 289.832 241.392C290.236 240.961 290.784 240.719 291.355 240.719H324.565C324.848 240.718 325.128 240.777 325.39 240.893C325.652 241.008 325.89 241.177 326.09 241.391C326.291 241.604 326.45 241.858 326.558 242.137C326.667 242.417 326.723 242.716 326.723 243.019C326.723 243.321 326.667 243.62 326.558 243.9C326.45 244.179 326.291 244.433 326.09 244.646C325.89 244.86 325.652 245.029 325.39 245.145C325.128 245.26 324.848 245.319 324.565 245.318Z" fill="#E4E4E4"/>
<path d="M275.319 322.973H250.231C248.974 322.972 247.768 322.438 246.878 321.488C245.989 320.538 245.489 319.251 245.487 317.908V294.707C245.489 293.364 245.989 292.076 246.878 291.127C247.768 290.177 248.974 289.643 250.231 289.641H275.319C276.577 289.643 277.783 290.177 278.672 291.127C279.562 292.076 280.062 293.364 280.063 294.707V317.908C280.062 319.251 279.562 320.538 278.672 321.488C277.783 322.438 276.577 322.972 275.319 322.973Z" fill="#F50057"/>
<path d="M378.792 303.217H291.355C290.784 303.217 290.236 302.975 289.832 302.544C289.428 302.112 289.201 301.527 289.201 300.917C289.201 300.307 289.428 299.722 289.832 299.291C290.236 298.86 290.784 298.617 291.355 298.617H378.792C379.363 298.617 379.911 298.86 380.315 299.291C380.719 299.722 380.946 300.307 380.946 300.917C380.946 301.527 380.719 302.112 380.315 302.544C379.911 302.975 379.363 303.217 378.792 303.217Z" fill="#E4E4E4"/>
<path d="M324.565 313.997H291.355C290.784 313.997 290.236 313.755 289.832 313.324C289.428 312.892 289.201 312.307 289.201 311.697C289.201 311.087 289.428 310.502 289.832 310.071C290.236 309.64 290.784 309.397 291.355 309.397H324.565C324.848 309.397 325.128 309.456 325.39 309.571C325.652 309.687 325.89 309.856 326.09 310.069C326.291 310.283 326.45 310.537 326.558 310.816C326.667 311.095 326.723 311.395 326.723 311.697C326.723 312 326.667 312.299 326.558 312.578C326.45 312.858 326.291 313.111 326.09 313.325C325.89 313.539 325.652 313.708 325.39 313.823C325.128 313.939 324.848 313.998 324.565 313.997Z" fill="#E4E4E4"/>
</g>
<defs>
<clipPath id="clip0_14_114">
<rect width="581" height="370" fill="white"/>
</clipPath>
</defs>
</svg>
